<svg xmlns="http://www.w3.org/2000/svg" width="320" height="320" viewBox="0 0 35 35" shape-rendering="crispEdges"><path fill="#FFFFFF" d="M0 0h35v35H0z"/><path stroke="#0F1117" d="M3 3.5h7m2 0h1m2 0h4m2 0h3m1 0h7M3 4.5h1m5 0h1m2 0h2m1 0h5m3 0h1m1 0h1m5 0h1M3 5.5h1m1 0h3m1 0h1m1 0h1m2 0h3m1 0h1m6 0h1m1 0h3m1 0h1M3 6.5h1m1 0h3m1 0h1m1 0h1m1 0h2m2 0h2m1 0h1m1 0h1m2 0h1m1 0h3m1 0h1M3 7.5h1m1 0h3m1 0h1m1 0h3m4 0h6m1 0h1m1 0h3m1 0h1M3 8.5h1m5 0h1m1 0h3m9 0h1m1 0h1m5 0h1M3 9.5h7m1 0h1m1 0h1m1 0h1m1 0h1m1 0h1m1 0h1m1 0h1m1 0h7M11 10.5h2m1 0h1m2 0h1m1 0h1m1 0h2M3 11.5h1m1 0h5m2 0h3m4 0h2m4 0h5M6 12.5h2m2 0h2m2 0h1m1 0h3m2 0h5m1 0h1m3 0h1M7 13.5h1m1 0h2m1 0h1m3 0h4m1 0h1m1 0h1m1 0h2M3 14.5h2m1 0h2m2 0h1m5 0h1m1 0h1m3 0h1m4 0h2m1 0h1M3 15.5h1m2 0h2m1 0h1m1 0h1m1 0h2m2 0h2m1 0h1m2 0h1m2 0h1m1 0h2M4 16.5h3m1 0h1m1 0h1m3 0h1m3 0h10m3 0h1M7 17.5h1m1 0h4m7 0h2m1 0h1m1 0h2m1 0h2M4 18.5h1m1 0h1m3 0h1m1 0h4m1 0h1m1 0h1m5 0h1m1 0h1m2 0h1M3 19.5h1m2 0h2m1 0h2m3 0h1m4 0h4m3 0h1m1 0h2M3 20.5h1m2 0h3m1 0h1m2 0h6m1 0h4m1 0h3m1 0h1m1 0h1M3 21.5h1m1 0h2m2 0h1m3 0h2m1 0h5m2 0h2m1 0h2m1 0h1M3 22.5h1m2 0h3m4 0h1m1 0h2m1 0h1m2 0h1m1 0h1m1 0h3m2 0h1M3 23.5h1m1 0h1m1 0h1m1 0h4m1 0h2m1 0h2m1 0h1m2 0h5m1 0h3M11 24.5h1m1 0h1m4 0h2m1 0h3m3 0h5M3 25.5h7m3 0h1m6 0h4m1 0h1m1 0h3M3 26.5h1m5 0h1m1 0h5m1 0h1m1 0h1m2 0h2m3 0h1m2 0h2M3 27.5h1m1 0h3m1 0h1m1 0h1m8 0h1m2 0h5m1 0h1m1 0h1M3 28.5h1m1 0h3m1 0h1m1 0h2m2 0h1m1 0h2m1 0h2m2 0h1m1 0h1m1 0h2M3 29.5h1m1 0h3m1 0h1m1 0h1m1 0h1m3 0h4m1 0h9M3 30.5h1m5 0h1m2 0h2m4 0h2m3 0h1m1 0h1m2 0h1m1 0h1M3 31.5h7m1 0h1m1 0h1m1 0h3m2 0h1m1 0h1m1 0h2m1 0h1m1 0h1"/></svg>
