<svg xmlns="http://www.w3.org/2000/svg" width="320" height="320" viewBox="0 0 39 39" shape-rendering="crispEdges"><path fill="#FFFFFF" d="M0 0h39v39H0z"/><path stroke="#0F1117" d="M3 3.5h7m3 0h3m5 0h4m1 0h1m2 0h7M3 4.5h1m5 0h1m2 0h1m5 0h2m1 0h1m1 0h2m4 0h1m5 0h1M3 5.5h1m1 0h3m1 0h1m1 0h2m2 0h1m1 0h1m5 0h3m3 0h1m1 0h3m1 0h1M3 6.5h1m1 0h3m1 0h1m1 0h3m7 0h1m3 0h1m1 0h1m1 0h1m1 0h3m1 0h1M3 7.5h1m1 0h3m1 0h1m1 0h10m2 0h4m2 0h1m1 0h3m1 0h1M3 8.5h1m5 0h1m1 0h7m3 0h2m4 0h1m1 0h1m5 0h1M3 9.5h7m1 0h1m1 0h1m1 0h1m1 0h1m1 0h1m1 0h1m1 0h1m1 0h1m1 0h1m1 0h7M11 10.5h1m2 0h2m1 0h1m1 0h1m2 0h3M3 11.5h1m1 0h5m4 0h4m2 0h1m1 0h2m5 0h5M3 12.5h2m3 0h1m1 0h1m1 0h3m1 0h1m2 0h2m1 0h3m1 0h1m2 0h2m1 0h2m1 0h1M8 13.5h3m1 0h9m6 0h3m1 0h1m1 0h2M3 14.5h1m1 0h1m1 0h1m3 0h1m2 0h1m1 0h1m1 0h1m1 0h2m1 0h2m2 0h2m2 0h5M5 15.5h1m1 0h1m1 0h1m5 0h1m1 0h3m2 0h2m1 0h2m1 0h1m1 0h3M7 16.5h2m1 0h3m5 0h1m2 0h1m3 0h2m2 0h2m3 0h2M4 17.5h1m1 0h1m1 0h7m1 0h6m1 0h1m1 0h1m2 0h2m1 0h4M3 18.5h1m1 0h1m4 0h1m1 0h1m2 0h1m2 0h1m5 0h1m1 0h5m1 0h2M4 19.5h1m2 0h6m2 0h1m1 0h2m1 0h1m4 0h1m1 0h2m1 0h2m3 0h1M5 20.5h1m1 0h1m2 0h1m2 0h1m1 0h1m3 0h1m1 0h4m1 0h1m2 0h2m1 0h4M4 21.5h2m3 0h1m1 0h2m1 0h2m2 0h1m2 0h1m1 0h3m1 0h5m1 0h2M3 22.5h2m1 0h2m6 0h1m1 0h4m2 0h3m3 0h7M3 23.5h2m2 0h1m1 0h2m1 0h2m1 0h3m3 0h2m2 0h1m2 0h1m2 0h2m1 0h1M3 24.5h2m1 0h3m2 0h2m3 0h1m1 0h2m3 0h2m1 0h1m1 0h2m2 0h1m2 0h1M3 25.5h1m1 0h5m1 0h1m2 0h3m3 0h3m5 0h1m2 0h1m2 0h1M3 26.5h1m3 0h2m2 0h2m1 0h3m2 0h1m2 0h4m2 0h3m1 0h3M3 27.5h1m2 0h2m1 0h3m1 0h1m1 0h1m1 0h1m2 0h1m1 0h1m2 0h7M11 28.5h1m2 0h3m2 0h4m1 0h1m1 0h2m3 0h1m1 0h3M3 29.5h7m7 0h4m2 0h5m1 0h1m1 0h1m1 0h2M3 30.5h1m5 0h1m1 0h2m1 0h1m2 0h5m1 0h5m3 0h3m1 0h1M3 31.5h1m1 0h3m1 0h1m1 0h9m2 0h1m2 0h1m1 0h6M3 32.5h1m1 0h3m1 0h1m1 0h1m3 0h1m1 0h2m1 0h2m3 0h4m2 0h5M3 33.5h1m1 0h3m1 0h1m1 0h4m1 0h4m1 0h1m3 0h1m3 0h2m1 0h2M3 34.5h1m5 0h1m2 0h1m3 0h1m1 0h1m3 0h1m1 0h2m5 0h3M3 35.5h7m1 0h1m2 0h2m1 0h2m1 0h1m4 0h1m1 0h4m1 0h1m1 0h1"/></svg>
